<svg xmlns="http://www.w3.org/2000/svg"  viewBox="0 0 128 128" width="64px" height="64px"><path fill="#ffdbab" d="M86.2,104H41.8C32,104,24,96,24,86.2V41.8C24,32,32,24,41.8,24h44.4C96,24,104,32,104,41.8v44.4C104,96,96,104,86.2,104z"/><path fill="#d18669" d="M24,41.8V53h80V41.8C104,32,96,24,86.2,24H41.8C32,24,24,32,24,41.8z"/><path fill="#444b54" d="M86.2,107H41.8C30.3,107,21,97.7,21,86.2V41.8C21,30.3,30.3,21,41.8,21h44.4c11.5,0,20.8,9.3,20.8,20.8v44.4C107,97.7,97.7,107,86.2,107z M41.8,27C33.6,27,27,33.6,27,41.8v44.4c0,8.1,6.6,14.8,14.8,14.8h44.4c8.1,0,14.8-6.6,14.8-14.8V41.8c0-8.1-6.6-14.8-14.8-14.8H41.8z"/><path fill="#fff" d="M64 49A15 15 0 1 0 64 79A15 15 0 1 0 64 49Z"/><path fill="#444b54" d="M64,82c-9.9,0-18-8.1-18-18c0-1.7,1.3-3,3-3s3,1.3,3,3c0,6.6,5.4,12,12,12s12-5.4,12-12s-5.4-12-12-12c-1.7,0-3-1.3-3-3s1.3-3,3-3c9.9,0,18,8.1,18,18S73.9,82,64,82z"/><path fill="#444b54" d="M53.8 55.9c-.8 0-1.6-.3-2.1-.9-.6-.6-.9-1.3-.9-2.1 0-.2 0-.4.1-.6 0-.2.1-.4.2-.6.1-.2.2-.4.3-.5.1-.2.2-.3.4-.5 1.1-1.1 3.1-1.1 4.2 0 .1.1.3.3.4.5.1.2.2.3.3.5.1.2.1.4.2.6 0 .2.1.4.1.6 0 .8-.3 1.6-.9 2.1C55.4 55.6 54.6 55.9 53.8 55.9zM86 38A4 4 0 1 0 86 46 4 4 0 1 0 86 38z"/></svg>